<svg xmlns="http://www.w3.org/2000/svg" viewBox="0 0 256 100"><style type="text/css">  
	.st0{fill:#00B3E3;}
</style><path class="st0" d="M54.1 57.4c-1 0.4-2 1-2.9 1.8 -0.9 0.7-1.9 1.5-2.9 2.4 -1 0.9-2 1.8-3 2.8 -1 1-2.2 1.9-3.4 2.7 -1.2 0.8-2.5 1.6-3.9 2.4 -1.4 0.8-3 1.4-4.7 2 -1.7 0.6-3.6 1-5.7 1.4s-4.4 0.5-6.9 0.5c-2.8 0-5.3-0.6-7.5-1.7 -2.2-1.1-4.1-2.6-5.7-4.5 -1.6-1.9-2.8-4.1-3.7-6.5 -0.9-2.5-1.3-5.1-1.3-7.8 0-1.9 0.2-3.9 0.6-6.1 0.4-2.2 1-4.4 1.8-6.7 0.8-2.3 1.7-4.5 2.8-6.8 1.1-2.3 2.4-4.4 3.8-6.5 1.4-2.1 3-4 4.6-5.8 1.7-1.8 3.5-3.3 5.4-4.6 1.9-1.3 3.9-2.3 6-3.1s4.3-1.1 6.6-1.1c1.5 0 3 0.3 4.5 0.8 1.5 0.5 2.9 1.3 4.1 2.4s2.2 2.5 3 4.1c0.8 1.7 1.2 3.6 1.2 5.9 0 1.5-0.2 3.1-0.7 4.6 -0.5 1.6-1.1 3-2 4.5 -0.8 1.4-1.8 2.8-3 4 -1.1 1.3-2.4 2.3-3.7 3.3s-2.7 1.6-4.1 2.2c-1.4 0.5-2.8 0.8-4.3 0.8 -1.9 0-3.3-0.3-4.2-0.8s-1.4-1.2-1.4-2.2c0-0.2 0-0.4 0-0.6 0-0.2 0-0.5 0-0.7 0-0.4 0-0.8 0.1-1.2s0.1-0.8 0.2-1.1c0.1-0.3 0.3-0.6 0.5-0.8s0.6-0.3 1-0.3c0.2 0 0.5 0 0.6 0.1 0.2 0.1 0.4 0.1 0.6 0.2 0.2 0.1 0.5 0.2 0.8 0.2 0.3 0.1 0.7 0.1 1.2 0.1 1.3 0 2.6-0.3 4-0.9 1.3-0.6 2.6-1.4 3.6-2.4 1.1-1 2-2.3 2.7-3.7 0.7-1.4 1-3 1-4.8 0-0.9-0.1-1.8-0.4-2.6 -0.2-0.8-0.6-1.6-1.2-2.2 -0.6-0.6-1.3-1.1-2.1-1.5 -0.9-0.4-1.9-0.6-3.2-0.6 -1.5 0-2.9 0.3-4.3 1 -1.4 0.7-2.8 1.5-4.1 2.7 -1.3 1.1-2.5 2.4-3.7 4s-2.2 3.2-3.2 4.9c-1 1.7-1.9 3.6-2.7 5.5 -0.8 1.9-1.5 3.8-2 5.7 -0.6 1.9-1 3.7-1.3 5.5s-0.4 3.4-0.4 4.9c0 2.2 0.3 4.1 0.8 5.7 0.5 1.6 1.3 3 2.2 4.1 1 1.1 2.1 1.9 3.5 2.4 1.4 0.5 3 0.8 4.7 0.8 2.2 0 4.2-0.3 6.1-0.8 1.9-0.6 3.7-1.3 5.4-2.2s3.4-1.9 4.9-3.1c1.6-1.1 3.2-2.3 4.8-3.5 1.6-1.2 3.2-2.3 4.9-3.3 1.7-1.1 3.4-1.9 5.3-2.7V57.4z"/><path class="st0" d="M69.1 43.6c0.6 1.2 1 2.4 1.3 3.8 0.3 1.3 0.4 2.8 0.4 4.5 0 1.2-0.1 2.4-0.4 3.7s-0.7 2.4-1.2 3.6c-0.5 1.2-1.1 2.2-1.8 3.2 -0.7 1-1.6 1.9-2.5 2.6s-2 1.3-3.1 1.8c-1.1 0.4-2.3 0.6-3.5 0.6 -1.8 0-3.4-0.4-4.6-1.2 -1.3-0.8-2.3-1.8-3.2-3.1 -0.8-1.3-1.4-2.7-1.8-4.3s-0.6-3.2-0.6-4.9c0-2.7 0.3-5 1-7 0.7-2 1.6-3.7 2.9-5.1s2.8-2.6 4.6-3.4c1.8-0.8 3.9-1.2 6.2-1.2 2 0 3.8 0.3 5.5 0.9s3.3 1.4 4.8 2.4c1.5 1 2.9 2.3 4.2 3.8 1.3 1.5 2.5 3 3.6 4.4l-0.6 4.3c-0.6-0.7-1.3-1.5-2.2-2.4 -0.9-0.9-1.9-1.8-3-2.9 -1.1-1-2.1-1.9-3.1-2.7s-1.9-1.3-2.7-1.8L69.1 43.6zM59.5 61.5c0.7 0 1.4-0.4 2-1.1 0.7-0.7 1.2-1.6 1.7-2.7 0.5-1.1 0.9-2.4 1.2-3.9s0.4-2.9 0.4-4.1c0-0.9-0.1-1.8-0.2-2.6 -0.1-0.8-0.4-1.5-0.6-2.1 -0.3-0.6-0.7-1.1-1.1-1.4S62 43 61.3 43c-0.8 0-1.6 0.4-2.4 1.1s-1.4 1.6-2 2.8c-0.6 1.1-1 2.4-1.4 3.7 -0.3 1.4-0.5 2.9-0.5 4.6 0 0.9 0.1 1.7 0.2 2.4 0.2 0.8 0.4 1.4 0.8 2 0.3 0.6 0.8 1 1.4 1.4S58.7 61.5 59.5 61.5z"/><path class="st0" d="M95.6 43.6c0.6 1.2 1 2.4 1.3 3.8 0.3 1.3 0.4 2.8 0.4 4.5 0 1.2-0.1 2.4-0.4 3.7s-0.7 2.4-1.2 3.6c-0.5 1.2-1.1 2.2-1.8 3.2 -0.7 1-1.6 1.9-2.5 2.6s-2 1.3-3.1 1.8 -2.3 0.6-3.5 0.6c-1.8 0-3.4-0.4-4.6-1.2 -1.3-0.8-2.3-1.8-3.2-3.1 -0.8-1.3-1.4-2.7-1.8-4.3s-0.6-3.2-0.6-4.9c0-2.7 0.3-5 1-7 0.7-2 1.6-3.7 2.9-5.1s2.8-2.6 4.6-3.4 3.9-1.2 6.2-1.2c2 0 3.8 0.3 5.5 0.9s3.3 1.4 4.8 2.4c1.5 1 2.9 2.3 4.2 3.8 1.3 1.5 2.5 3 3.6 4.4l-0.6 4.3c-0.6-0.7-1.3-1.5-2.2-2.4 -0.9-0.9-1.9-1.8-3-2.9 -1.1-1-2.1-1.9-3.1-2.7s-1.9-1.3-2.7-1.8L95.6 43.6zM86.1 61.5c0.7 0 1.4-0.4 2-1.1 0.7-0.7 1.2-1.6 1.7-2.7 0.5-1.1 0.9-2.4 1.2-3.9s0.4-2.9 0.4-4.1c0-0.9-0.1-1.8-0.2-2.6 -0.1-0.8-0.4-1.5-0.6-2.1 -0.3-0.6-0.7-1.1-1.1-1.4s-1-0.5-1.6-0.5c-0.8 0-1.6 0.4-2.4 1.1 -0.8 0.7-1.4 1.6-2 2.8 -0.6 1.1-1 2.4-1.4 3.7 -0.3 1.4-0.5 2.9-0.5 4.6 0 0.9 0.1 1.7 0.2 2.4 0.2 0.8 0.4 1.4 0.8 2 0.3 0.6 0.8 1 1.4 1.4S85.3 61.5 86.1 61.5z"/><path class="st0" d="M110.1 67.4c-1.1 0-2.1-0.5-3.1-1.4 -1-1-1.8-2.2-2.5-3.9s-1.3-3.5-1.7-5.6c-0.4-2.1-0.6-4.4-0.6-6.7 0-2 0.3-4.7 0.9-8.1s0.9-5 0.9-5 0.4-1.7 1.3-5c0.9-3.4 1.8-6.1 2.7-8.1 0.9-2 1.9-3.9 2.9-5.7 1.1-1.8 2.2-3.3 3.3-4.6 1.2-1.3 2.4-2.3 3.6-3.1 1.3-0.7 2.6-1.1 3.9-1.1 1 0 1.7 0.2 2.4 0.5 0.6 0.4 1.1 0.8 1.5 1.4 0.4 0.6 0.6 1.3 0.7 2 0.1 0.8 0.2 1.5 0.2 2.3 0 1.9-0.2 3.9-0.7 5.9 -0.5 2-1.1 4-1.9 6.1 -0.8 2-1.7 4.1-2.7 6.1 -1 2-2.1 4.1-3.2 6.1 -1.1 2-2.2 4-3.3 5.9 -1.1 2-2.2 3.9-3.1 5.7 -0.1 0.2-0.2 0.5-0.3 0.8 -0.1 0.3-0.2 0.7-0.3 1.1 -0.1 0.4-0.2 0.8-0.3 1.2 -0.1 0.4-0.2 0.9-0.2 1.3V56c0 0.5 0.1 1.1 0.2 1.6 0.1 0.5 0.3 1 0.4 1.4 0.2 0.4 0.3 0.7 0.5 1 0.2 0.2 0.4 0.4 0.5 0.4 0.4 0 0.9-0.1 1.4-0.2 0.5-0.2 1.1-0.4 1.6-0.7 0.6-0.3 1.2-0.6 1.8-1 0.6-0.4 1.2-0.7 1.8-1.1 1.3-0.9 2.7-1.9 4.2-3l2.7 6.5c-1.9 1.3-3.7 2.4-5.6 3.3 -0.8 0.4-1.6 0.8-2.5 1.2 -0.9 0.4-1.7 0.8-2.6 1.1 -0.9 0.3-1.7 0.6-2.5 0.7C111.6 67.3 110.8 67.4 110.1 67.4zM110.1 43c0.9-1.7 1.9-3.5 3-5.6 1-2.1 2-4.2 3-6.4 0.9-2.2 1.7-4.4 2.4-6.6 0.7-2.2 1.1-4.2 1.3-6.1 0-0.6 0-1.1 0-1.5 0-0.4-0.1-0.6-0.3-0.6 -0.6 0-1.2 0.4-1.8 1.2 -0.7 0.8-1.3 1.8-2 3.2 -0.7 1.3-1.4 3.5-2.3 6.5 -0.9 3-1.4 4.5-1.4 4.5 0 0-0.3 1.4-0.8 4.2C110.6 38.4 110.2 40.9 110.1 43z"/><path class="st0" d="M127.9 57.8c0.3-0.2 0.7-0.5 1.4-0.9 0.6-0.4 1.4-0.9 2.3-1.5 0.9-0.6 1.8-1.2 2.8-1.9 1-0.7 2-1.4 3-2.1l0.2-2.1c0.5-4.4 1.2-8.4 2.2-12.1 1-3.7 2.2-7 3.6-9.9 1.4-3 2.9-5.5 4.5-7.7 1.6-2.2 3.3-4.1 4.9-5.6 1.7-1.5 3.3-2.6 5-3.3 1.6-0.7 3.2-1.1 4.6-1.1 1 0 2 0.2 2.9 0.6 0.9 0.4 1.6 1 2.3 1.8 0.6 0.8 1.1 1.8 1.5 3 0.4 1.2 0.5 2.6 0.5 4.2 0 1.9-0.3 4-0.9 6.1 -0.6 2.1-1.4 4.3-2.5 6.4 -1.1 2.2-2.3 4.3-3.8 6.5 -1.5 2.2-3.1 4.2-5 6.2 -1.8 2-3.8 3.9-5.9 5.7 -2.1 1.8-4.3 3.4-6.5 4.8 0 1.3 0 2.8-0.1 4.6 0 0.7 0 1.3 0 1.7 0 0.4 0 0.6 0 0.8 0 0.1 0 0.3 0 0.3 0 0.2 0 0.4 0.1 0.5 0.1 0.2 0.2 0.3 0.4 0.4 0.2 0.1 0.5 0.2 0.9 0.2 0.4 0.1 0.9 0.1 1.5 0.1 0.9 0 2.2-0.4 3.7-1.3l10.3-3c0.1 0 0.3-0.1 0.5-0.1 0.2 0 0.3 0 0.5 0 0.5 0 1 0.1 1.4 0.3 0.4 0.2 0.7 0.5 0.9 0.8 0.3 0.3 0.4 0.7 0.6 1.2 0.1 0.4 0.2 0.9 0.2 1.4 0 0.4-0.1 0.8-0.2 1.2 -0.1 0.4-0.3 0.8-0.6 1.1 -0.2 0.3-0.6 0.6-0.9 0.9 -0.4 0.3-0.8 0.4-1.3 0.5 -2 0.7-4.1 1.3-6.2 1.8 -0.9 0.3-1.9 0.5-2.9 0.8 -1 0.3-2 0.6-3 0.9 -1 0.3-2 0.5-3.1 0.5 -1.1 0.1-2.1 0.1-3.1 0.1 -1.5 0-2.8-0.2-3.7-0.7 -1-0.5-1.7-1.2-2.3-2 -0.6-0.8-1-2.1-1.2-3.7 -0.2-1.6-0.3-3-0.3-4.3 -1.8 1.3-3.3 2.3-4.5 3.1 -1.2 0.8-2 1.1-2.4 1.1 -0.3 0-0.7-0.1-1-0.4 -0.3-0.2-0.6-0.5-0.9-0.9 -0.3-0.4-0.5-0.8-0.6-1.3 -0.2-0.5-0.2-1-0.2-1.4 0-0.4 0-0.8 0.1-1.2C127.3 58.4 127.5 58.1 127.9 57.8zM145.4 46.9c1-1.1 2.1-2.3 3.3-3.6 1.1-1.3 2.3-2.7 3.4-4.1 1.1-1.4 2.2-2.9 3.2-4.4 1-1.5 2-3 2.8-4.4 0.8-1.5 1.5-2.9 2.1-4.3 0.6-1.4 0.9-2.7 1.1-4 0.1-0.4 0.1-0.8 0.1-1.2 0-0.4 0-0.7 0-1.1 0-1.2-0.2-2-0.5-2.6 -0.3-0.5-0.8-0.8-1.3-0.8 -0.7 0-1.4 0.3-2.3 1 -0.9 0.7-1.8 1.7-2.8 3 -1 1.3-1.9 2.9-2.9 4.7 -1 1.8-1.9 3.9-2.7 6.1 -0.8 2.2-1.6 4.7-2.2 7.3C146 41.2 145.6 44 145.4 46.9z"/><path class="st0" d="M185.5 43.6c0.6 1.2 1 2.4 1.3 3.8 0.3 1.3 0.4 2.8 0.4 4.5 0 1.2-0.1 2.4-0.4 3.7 -0.3 1.2-0.7 2.4-1.2 3.6 -0.5 1.2-1.1 2.2-1.8 3.2 -0.7 1-1.6 1.9-2.5 2.6s-2 1.3-3.1 1.8 -2.3 0.6-3.5 0.6c-1.8 0-3.4-0.4-4.6-1.2 -1.3-0.8-2.3-1.8-3.2-3.1 -0.8-1.3-1.4-2.7-1.8-4.3 -0.4-1.6-0.6-3.2-0.6-4.9 0-2.7 0.3-5 1-7 0.7-2 1.6-3.7 2.9-5.1 1.3-1.4 2.8-2.6 4.6-3.4s3.9-1.2 6.2-1.2c2 0 3.8 0.3 5.5 0.9s3.3 1.4 4.8 2.4c1.5 1 2.9 2.3 4.2 3.8s2.5 3 3.6 4.4l-0.6 4.3c-0.6-0.7-1.3-1.5-2.2-2.4 -0.9-0.9-1.9-1.8-3-2.9 -1.1-1-2.1-1.9-3.1-2.7 -1-0.7-1.9-1.3-2.7-1.8L185.5 43.6zM175.9 61.5c0.7 0 1.4-0.4 2-1.1 0.7-0.7 1.2-1.6 1.7-2.7 0.5-1.1 0.9-2.4 1.2-3.9s0.4-2.9 0.4-4.1c0-0.9-0.1-1.8-0.2-2.6 -0.1-0.8-0.4-1.5-0.6-2.1 -0.3-0.6-0.7-1.1-1.1-1.4 -0.5-0.3-1-0.5-1.6-0.5 -0.8 0-1.6 0.4-2.4 1.1s-1.4 1.6-2 2.8c-0.6 1.1-1 2.4-1.4 3.7 -0.3 1.4-0.5 2.9-0.5 4.6 0 0.9 0.1 1.7 0.2 2.4 0.2 0.8 0.4 1.4 0.8 2 0.3 0.6 0.8 1 1.4 1.4S175.1 61.5 175.9 61.5z"/><path class="st0" d="M196.6 95.6c-0.9-0.2-1.7-0.6-2.4-1.1 -0.8-0.5-1.4-1.2-1.8-2 -0.5-0.9-0.7-1.9-0.8-3 -0.2-2.2 0.4-4.4 1.8-6.9 0.8-1.4 1.3-2.3 1.6-2.8 0.3-0.5 0.8-1.3 1.4-2.3 0.7-1 1.4-1.9 2-2.6 1.4-1.6 2.6-2.9 3.6-3.9 0.9-1 2-2 3.3-3.2l0.6-3.7c-2.3 2.2-4.5 3.3-6.7 3.3 -1.6 0-3.1-0.5-4.4-1.4 -1.3-1-2.4-2.2-3-3.6 -1.2-2.6-1.3-5.6-0.1-9 1.1-3.2 2.1-5.8 3.2-7.9 1.1-2.1 2.5-3.9 4.2-5.4 2.5-2.2 4.9-3.4 7.3-3.4 1.1 0 1.8 0.3 2.3 0.9 0.1 0.1 0.2 0.2 0.3 0.4s0.2 0.3 0.3 0.3c0 0 0.1 0.1 0.3 0.2 0.1 0.1 0.2 0.2 0.3 0.2 0.1 0 0.2 0.1 0.4 0.1 0.2 0.1 0.3 0.1 0.6 0.1 0.2 0 0.4 0 0.7 0l1.4 0c0.9 0 1.6 0.3 1.9 0.8 0.1 0.2 0.3 0.5 0.4 0.9 0.2 0.6 0.3 2.8 0.1 6.3 -0.1 1.1-0.3 2.5-0.8 4.1s-0.8 3.5-0.9 5.5c-0.1 2-0.4 4.6-0.7 7.8 0.6-0.3 1.2-0.8 1.9-1.3 2.4-1.8 5.2-5.2 8.2-10.2l2 6.8c-0.6 1.1-1.6 2.5-3.1 3.9 -1.5 1.5-2.7 2.6-3.8 3.4 -0.2 0.1-0.3 0.2-0.4 0.3 -2 1.3-3.4 2.2-4.3 2.8 -0.6 0.4-0.9 1-1.1 2 -0.2 1-0.4 2.8-0.7 5.4 -0.1 0.8-0.2 1.4-0.2 1.8 -0.1 0.9-0.2 1.9-0.3 2.8 -0.1 0.9-0.3 1.9-0.6 3.1 -0.3 1.1-0.6 2.2-1 3.1 -0.4 1-0.9 1.9-1.5 2.9 -0.6 1-1.3 1.8-2.1 2.4 -0.8 0.7-1.7 1.2-2.8 1.6 -1.1 0.4-2.3 0.6-3.6 0.6C198.5 96 197.5 95.9 196.6 95.6zM201.1 80.2c-1.4 2.3-2.5 4.6-3.3 6.9 -0.7 2-0.3 2.9 1 2.9 0.5 0 0.9-0.1 1.3-0.2 0.4-0.1 0.7-0.3 1.1-0.7 0.3-0.3 0.6-0.7 0.9-1 0.2-0.4 0.5-0.9 0.8-1.6 0.3-0.7 0.5-1.4 0.8-2s0.5-1.6 0.8-2.7c0.2-0.6 0.3-1.3 0.4-2 0.1-0.7 0.2-1.6 0.3-2.6s0.2-1.7 0.2-2C203.9 76.3 202.5 78 201.1 80.2zM199.3 60.2c0.5 0.9 1.1 1.3 1.9 1.3 1.4 0 2.6-1.1 3.5-3.4 0.7-1.8 1.1-3.5 1.2-5.3l2.3-10.3c-2.4 0-4.5 1.6-6.3 4.8 -2 3.4-3 5.7-3.2 6.9C198.3 56.9 198.5 58.9 199.3 60.2z"/><path class="st0" d="M241.9 43.6c0.6 1.2 1 2.4 1.3 3.8 0.3 1.3 0.4 2.8 0.4 4.5 0 1.2-0.1 2.4-0.4 3.7 -0.3 1.2-0.7 2.4-1.2 3.6 -0.5 1.2-1.1 2.2-1.8 3.2 -0.7 1-1.6 1.9-2.5 2.6s-2 1.3-3.1 1.8 -2.3 0.6-3.5 0.6c-1.8 0-3.4-0.4-4.6-1.2 -1.3-0.8-2.3-1.8-3.2-3.1 -0.8-1.3-1.4-2.7-1.8-4.3 -0.4-1.6-0.6-3.2-0.6-4.9 0-2.7 0.3-5 1-7 0.7-2 1.6-3.7 2.9-5.1 1.3-1.4 2.8-2.6 4.6-3.4s3.9-1.2 6.2-1.2c2 0 3.8 0.3 5.5 0.9s3.3 1.4 4.8 2.4c1.5 1 2.9 2.3 4.2 3.8s2.5 3 3.6 4.4l-0.6 4.3c-0.6-0.7-1.3-1.5-2.2-2.4s-1.9-1.8-3-2.9c-1.1-1-2.1-1.9-3.1-2.7 -1-0.7-1.9-1.3-2.7-1.8L241.9 43.6zM232.4 61.5c0.7 0 1.4-0.4 2-1.1 0.7-0.7 1.2-1.6 1.7-2.7 0.5-1.1 0.9-2.4 1.2-3.9s0.4-2.9 0.4-4.1c0-0.9-0.1-1.8-0.2-2.6 -0.1-0.8-0.4-1.5-0.6-2.1 -0.3-0.6-0.7-1.1-1.1-1.4 -0.5-0.3-1-0.5-1.6-0.5 -0.8 0-1.6 0.4-2.4 1.1s-1.4 1.6-2 2.8c-0.6 1.1-1 2.4-1.4 3.7 -0.3 1.4-0.5 2.9-0.5 4.6 0 0.9 0.1 1.7 0.2 2.4 0.2 0.8 0.4 1.4 0.8 2 0.3 0.6 0.8 1 1.4 1.4S231.6 61.5 232.4 61.5z"/></svg>